<?xml version="1.0" encoding="utf-8"?>
<!-- Generator: Adobe Illustrator 25.0.1, SVG Export Plug-In . SVG Version: 6.00 Build 0)  -->
<svg version="1.1" id="Layer_1" xmlns="http://www.w3.org/2000/svg" xmlns:xlink="http://www.w3.org/1999/xlink" x="0px" y="0px"
	 viewBox="0 0 848 85" style="enable-background:new 0 0 848 85;" xml:space="preserve">
<style type="text/css">
	.st0{fill:#015AAA;}
</style>
<g>
	<path class="st0" d="M47,52.6v19.5c0,5.5-4.5,10-10,10h-0.4c-5.5,0-10-4.5-10-10V52L3.9,16.3c-1-1.5-1.6-3-1.7-4.5
		c-0.1-1.5,0-2.9,0.5-4.1c0.5-1.3,1.2-2.4,2.1-3.4c0.9-1,2-1.7,3.1-2.1c3.2-1.3,6.2-1.4,8.9-0.1c2.7,1.2,5,3.3,6.7,6.1l14,23.2
		L51,8.1c0.7-1.2,1.6-2.3,2.5-3.4c0.9-1,2-1.9,3.1-2.5c1.2-0.6,2.5-1,3.9-1.1c1.4-0.1,2.9,0.1,4.6,0.6c1.2,0.4,2.3,1.1,3.4,2
		c1,0.9,1.8,2,2.4,3.3c0.5,1.3,0.8,2.8,0.6,4.4s-0.7,3.2-1.8,4.9L47,52.6z"/>
	<path class="st0" d="M75.2,31.6c0-5.7,1-10.6,3.1-14.5c2.1-3.9,4.7-7,8-9.4c3.3-2.4,6.9-4.1,10.9-5.1c4-1,7.8-1.5,11.6-1.5
		c3.7,0,7.5,0.5,11.4,1.5c4,1,7.6,2.7,10.9,5.1c3.3,2.4,6,5.5,8,9.4c2.1,3.9,3.2,8.7,3.2,14.5v21.9c0,5.7-1.1,10.6-3.2,14.5
		c-2.1,3.9-4.8,7-8,9.4c-3.3,2.4-6.9,4.1-10.9,5.1c-4,1-7.8,1.5-11.4,1.5c-3.7,0-7.5-0.5-11.5-1.5c-4-1-7.6-2.7-10.9-5.1
		c-3.3-2.4-5.9-5.5-8-9.4c-2.1-3.9-3.1-8.7-3.1-14.5V31.6z M121.8,31c0-2.2-0.4-4.1-1.1-5.7c-0.8-1.6-1.8-2.9-3-4
		c-1.3-1.1-2.7-1.8-4.2-2.3c-1.5-0.5-3.1-0.8-4.7-0.8c-1.6,0-3.2,0.2-4.7,0.8c-1.5,0.5-2.9,1.3-4.2,2.3c-1.3,1.1-2.3,2.4-3,4
		c-0.8,1.6-1.1,3.5-1.1,5.7v23.1c0,2,0.4,3.8,1.2,5.4c0.8,1.6,1.9,3,3.1,4c1.3,1.1,2.7,1.9,4.2,2.5c1.6,0.6,3,0.9,4.5,0.9
		c1.4,0,2.9-0.3,4.4-0.9c1.6-0.6,3-1.4,4.2-2.5c1.3-1.1,2.3-2.5,3.1-4c0.8-1.6,1.2-3.4,1.2-5.4V31z"/>
	<path class="st0" d="M216.7,55.4c0,5.1-0.8,9.4-2.5,13c-1.7,3.6-3.9,6.5-6.8,8.8c-2.9,2.3-6.2,3.9-10,5s-7.8,1.6-12.1,1.6
		c-4.3,0-8.6-0.5-12.8-1.6c-4.2-1.1-7.9-2.9-11.1-5.3c-3.2-2.4-5.8-5.6-7.8-9.4c-2-3.9-3-8.5-3-14V31.6c0-5.5,1-10.2,3-14.1
		c2-3.9,4.6-7,7.9-9.4c3.3-2.4,7-4.1,11.2-5.2c4.2-1.1,8.5-1.6,12.9-1.6c4.6,0,8.8,0.5,12.6,1.4c3.8,0.9,6.7,2.1,8.6,3.5
		c2.1,1.5,3.5,3.3,4.3,5.4c0.8,2.2,0.6,4.3-0.6,6.5c-1,1.7-2.3,3-4,3.7c-1.7,0.7-3.4,0.9-5.1,0.6c-1.1-0.2-2.1-0.5-3-0.9
		c-0.9-0.4-1.7-0.8-2.5-1.1c-2.3-0.9-5.8-1.3-10.3-1.3c-1.7,0-3.5,0.3-5.2,0.9c-1.7,0.6-3.3,1.4-4.7,2.5c-1.4,1.1-2.5,2.5-3.4,4.2
		c-0.9,1.7-1.3,3.7-1.3,6v20c0,2.3,0.4,4.3,1.2,6.1c0.8,1.7,1.9,3.1,3.2,4.2c1.4,1.1,2.9,1.9,4.6,2.5c1.7,0.6,3.5,0.8,5.2,0.8
		c1.7,0,3.3-0.2,4.9-0.6c1.6-0.4,3-1.1,4.2-1.9c1.2-0.8,2.2-1.9,2.9-3.2c0.7-1.3,1.1-2.8,1.1-4.6v-1.2c0-1-0.1-1.6-0.5-1.9
		c-0.3-0.3-0.9-0.4-1.8-0.4h-3.3c-1.5,0-2.7-0.2-3.7-0.8s-1.8-1.2-2.5-2c-0.6-0.8-1.1-1.7-1.4-2.7c-0.3-1-0.5-2-0.5-3s0.1-2,0.5-3
		c0.3-1,0.8-2,1.4-2.8c0.6-0.8,1.5-1.5,2.5-2.1c1-0.5,2.2-0.8,3.6-0.8h9.1c2.9,0,5.4,0.2,7.3,0.8c1.9,0.5,3.5,1.3,4.6,2.5
		c1.1,1.2,1.9,2.7,2.3,4.6c0.4,1.9,0.6,4.2,0.6,7V55.4z"/>
	<path class="st0" d="M268.1,11.1c0-1.7,0.3-3.1,0.9-4.4c0.6-1.3,1.3-2.3,2.2-3.1c0.9-0.8,2-1.4,3.2-1.8c1.2-0.4,2.6-0.6,4-0.6
		c2.8,0,5.2,0.8,7.2,2.4c2,1.6,3,4.1,3,7.5v43.3c0,5.6-1,10.3-3,14c-2,3.7-4.6,6.8-7.7,9c-3.1,2.3-6.6,3.9-10.4,4.9
		c-3.8,1-7.5,1.5-11.1,1.5c-3.6,0-7.3-0.5-11.1-1.5c-3.8-1-7.3-2.6-10.4-4.9c-3.1-2.3-5.7-5.3-7.7-9c-2-3.7-3-8.4-3-14V11.1
		c0-1.7,0.3-3.1,0.9-4.4c0.6-1.3,1.3-2.3,2.2-3.1c0.9-0.8,2-1.4,3.2-1.8c1.2-0.4,2.5-0.6,3.9-0.6c2.8,0,5.2,0.8,7.2,2.4
		c2,1.6,3.1,4.1,3.1,7.5v44.1c0,1.9,0.4,3.5,1,4.9c0.7,1.4,1.6,2.6,2.8,3.5c1.1,0.9,2.4,1.6,3.8,2.1c1.4,0.5,2.7,0.7,4.1,0.7
		c1.3,0,2.7-0.2,4-0.7c1.4-0.5,2.6-1.2,3.8-2.1c1.1-0.9,2-2.1,2.8-3.5c0.7-1.4,1-3,1-4.9V11.1z"/>
	<path class="st0" d="M363.1,28.9c0,4.8-1.1,9-3.4,12.6c-2.2,3.6-5.1,6.5-8.8,8.8l10.4,17.5c3.8,6.3-0.8,14.4-8.2,14.4l0,0
		c-3.6,0-7-2-8.7-5.1l-12.1-21.8h-12.8v16.9c0,5.5-4.5,10-10,10h-0.5c-5.5,0-10-4.5-10-10V17.4c0-2.9,0.2-5.3,0.8-7.3
		s1.4-3.6,2.6-4.9c1.2-1.3,2.8-2.2,4.8-2.8c2-0.6,4.5-0.9,7.5-0.9h18.4c4.3,0,8.3,0.5,12,1.5c3.7,1,6.8,2.6,9.5,4.8
		c2.7,2.2,4.8,4.9,6.2,8.1c1.5,3.3,2.2,7.1,2.2,11.6V28.9z M319.6,38.3h13c3.4,0,6-0.9,7.6-2.8c1.7-1.9,2.6-4.1,2.6-6.6v-0.7
		c0-2.5-0.9-4.7-2.6-6.6c-1.7-1.9-4.2-2.8-7.6-2.8h-10.1c-1.1,0-1.9,0.2-2.3,0.6c-0.4,0.4-0.6,1.1-0.6,2.4V38.3z"/>
	<path class="st0" d="M391.9,72.1V19.3h-15.3c-1.5,0-2.7-0.3-3.8-0.8c-1-0.5-1.9-1.2-2.5-2.1c-0.6-0.9-1.1-1.8-1.4-2.9
		c-0.3-1.1-0.5-2.1-0.5-3.1s0.1-2,0.5-3c0.3-1,0.8-2,1.4-2.8c0.6-0.8,1.5-1.5,2.5-2c1-0.5,2.3-0.8,3.8-0.8H428
		c1.5,0,2.7,0.2,3.8,0.8c1,0.5,1.9,1.2,2.5,2c0.6,0.8,1.1,1.8,1.4,2.8c0.3,1,0.5,2,0.5,3s-0.2,2-0.5,3.1c-0.3,1.1-0.8,2-1.5,2.9
		c-0.7,0.9-1.5,1.6-2.5,2.1c-1,0.5-2.2,0.8-3.7,0.8h-15.3v52.8c0,5.5-4.5,10-10,10h-0.8C396.4,82.1,391.9,77.6,391.9,72.1z"/>
	<path class="st0" d="M533.8,55l10-46.4c0.3-1.5,0.8-2.8,1.6-3.8c0.8-1,1.7-1.8,2.8-2.3c1.1-0.6,2.2-0.9,3.5-1.1
		c1.3-0.2,2.5-0.1,3.8,0c1.2,0.2,2.3,0.6,3.4,1.2c1.1,0.6,2,1.4,2.7,2.4c0.7,0.9,1.2,2,1.5,3.4c0.3,1.3,0.3,2.7,0,4.1l-13.5,59.5
		c-1.3,5.9-6.6,10.1-12.7,10.1h-1.3c-6,0-11.3-4.2-12.7-10l-9.4-40l-9.3,40c-1.4,5.8-6.5,10-12.5,10h0c-6,0-11.3-4.1-12.6-10
		l-14.1-59.5c-0.3-1.5-0.3-2.9,0-4.2c0.3-1.3,0.8-2.4,1.5-3.4c0.7-1,1.7-1.8,2.8-2.4c1.1-0.6,2.2-1,3.5-1.2c1.3-0.2,2.5-0.2,3.8,0
		c1.3,0.2,2.5,0.5,3.6,1.1c1.1,0.6,2,1.3,2.8,2.3c0.8,1,1.3,2.3,1.6,3.8l9.3,43.8l9.2-41.1c0.4-1.5,1-2.7,1.9-3.7
		c0.8-1,1.7-1.8,2.7-2.4c1-0.6,2-1,3-1.2c1.1-0.2,2.1-0.3,3-0.3c0.9,0,1.9,0.1,3,0.3c1.1,0.2,2.1,0.6,3,1.2c1,0.6,1.9,1.4,2.7,2.4
		c0.8,1,1.5,2.2,1.8,3.7L533.8,55z"/>
	<path class="st0" d="M568,31.6c0-5.7,1-10.6,3.1-14.5s4.7-7,8-9.4c3.3-2.4,6.9-4.1,10.9-5.1c4-1,7.8-1.5,11.5-1.5
		c3.7,0,7.5,0.5,11.5,1.5c4,1,7.6,2.7,10.8,5.1c3.3,2.4,6,5.5,8,9.4c2.1,3.9,3.2,8.7,3.2,14.5v21.9c0,5.7-1,10.6-3.2,14.5
		c-2.1,3.9-4.8,7-8,9.4c-3.3,2.4-6.9,4.1-10.8,5.1c-4,1-7.8,1.5-11.5,1.5c-3.7,0-7.5-0.5-11.5-1.5c-4-1-7.6-2.7-10.8-5.1
		c-3.3-2.4-6-5.5-8-9.4c-2.1-3.9-3.2-8.7-3.2-14.5V31.6z M614.6,31c0-2.2-0.4-4.1-1.1-5.7c-0.8-1.6-1.8-2.9-3-4
		c-1.3-1.1-2.7-1.8-4.2-2.3c-1.5-0.5-3.1-0.8-4.7-0.8s-3.2,0.2-4.7,0.8c-1.5,0.5-2.9,1.3-4.2,2.3c-1.3,1.1-2.3,2.4-3,4
		c-0.8,1.6-1.1,3.5-1.1,5.7v23.1c0,2,0.4,3.8,1.2,5.4c0.8,1.6,1.9,3,3.1,4c1.3,1.1,2.7,1.9,4.2,2.5c1.6,0.6,3,0.9,4.5,0.9
		s2.9-0.3,4.5-0.9c1.6-0.6,3-1.4,4.2-2.5c1.3-1.1,2.3-2.5,3.1-4c0.8-1.6,1.2-3.4,1.2-5.4V31z"/>
	<path class="st0" d="M708.6,28.9c0,4.8-1.1,9-3.3,12.6c-2.2,3.6-5.2,6.5-8.8,8.8L707,67.7c3.8,6.3-0.8,14.4-8.2,14.4l0,0
		c-3.6,0-7-2-8.7-5.1l-12.1-21.8h-12.8v16.9c0,5.5-4.5,10-10,10h-0.5c-5.5,0-10-4.5-10-10V17.4c0-2.9,0.2-5.3,0.8-7.3
		s1.4-3.6,2.6-4.9c1.2-1.3,2.8-2.2,4.8-2.8c2-0.6,4.5-0.9,7.5-0.9h18.4c4.3,0,8.3,0.5,12,1.5c3.7,1,6.8,2.6,9.5,4.8
		c2.7,2.2,4.8,4.9,6.2,8.1c1.5,3.3,2.2,7.1,2.2,11.6V28.9z M665.1,38.3h13c3.4,0,6-0.9,7.7-2.8c1.7-1.9,2.5-4.1,2.5-6.6v-0.7
		c0-2.5-0.8-4.7-2.5-6.6c-1.7-1.9-4.2-2.8-7.7-2.8H668c-1.1,0-1.9,0.2-2.3,0.6c-0.4,0.4-0.6,1.1-0.6,2.4V38.3z"/>
	<path class="st0" d="M735,82.1c-3,0-5.5-0.3-7.5-0.8s-3.6-1.5-4.8-2.8c-1.2-1.3-2-2.9-2.5-4.9s-0.8-4.4-0.8-7.3V11.4
		c0-1.7,0.3-3.1,0.8-4.4c0.6-1.3,1.3-2.3,2.3-3.2c1-0.9,2.1-1.5,3.4-1.9c1.3-0.4,2.6-0.6,3.9-0.6c1.3,0,2.6,0.2,3.9,0.6
		c1.3,0.4,2.4,1.1,3.3,1.9c1,0.9,1.7,1.9,2.3,3.2c0.6,1.3,0.8,2.7,0.8,4.4v50.3c0,1.2,0.2,2,0.6,2.3c0.4,0.4,1.2,0.5,2.3,0.5h22.2
		c1.5,0,2.7,0.2,3.8,0.8c1,0.5,1.9,1.2,2.5,2c0.6,0.8,1.1,1.8,1.4,2.8c0.3,1,0.5,2,0.5,3s-0.2,2-0.5,3.1c-0.3,1.1-0.8,2-1.5,2.9
		c-0.7,0.9-1.5,1.6-2.5,2.1c-1,0.5-2.2,0.8-3.7,0.8H735z"/>
	<path class="st0" d="M810.3,1.6c4.3,0,8.6,0.6,12.9,1.9c4.2,1.2,8,3.3,11.4,6.2c3.4,2.9,6.1,6.7,8.2,11.5
		c2.1,4.7,3.1,10.6,3.1,17.5v6.5c0,6.9-1,12.8-3.1,17.5c-2.1,4.7-4.8,8.6-8.2,11.5c-3.4,2.9-7.2,5-11.4,6.2
		c-4.2,1.2-8.5,1.8-12.9,1.8h-14.9c-3,0-5.5-0.3-7.5-0.8s-3.6-1.5-4.8-2.8c-1.2-1.3-2.1-2.9-2.6-4.9s-0.8-4.4-0.8-7.3V17.4
		c0-2.9,0.2-5.3,0.8-7.3s1.4-3.6,2.6-4.9c1.2-1.3,2.8-2.2,4.8-2.8c2-0.6,4.5-0.9,7.5-0.9H810.3z M825.4,37c0-5.9-1.4-10.4-4.3-13.5
		c-2.9-3.1-6.7-4.6-11.4-4.6h-6.6c-1.1,0-1.9,0.2-2.3,0.6c-0.4,0.4-0.6,1.1-0.6,2.3v40.1c0,1.2,0.2,2,0.6,2.3
		c0.4,0.4,1.2,0.5,2.3,0.5h6.6c4.7,0,8.5-1.5,11.4-4.6c2.9-3.1,4.3-7.6,4.3-13.5V37z"/>
</g>
</svg>
