<?xml version="1.0" encoding="utf-8"?>
<!-- Generator: Adobe Illustrator 26.5.1, SVG Export Plug-In . SVG Version: 6.00 Build 0)  -->
<svg version="1.1" id="레이어_1" xmlns="http://www.w3.org/2000/svg" xmlns:xlink="http://www.w3.org/1999/xlink" x="0px"
	 y="0px" viewBox="0 0 486.8 83.7" style="enable-background:new 0 0 486.8 83.7;" xml:space="preserve">
<style type="text/css">
	.st0{fill:#0068B7;}
</style>
<g>
	<path class="st0" d="M48,43.1C48,53.7,55.5,59,66.3,59c11.8,0,18.3-5.3,18.3-15.8s-6.7-15.8-18.3-15.8C55.5,27.3,48,32.6,48,43.1z
		 M66.2,32.6c3.4,0,3.7,2.8,3.7,10.5c0,7.2-0.3,10.5-3.7,10.5c-3.4,0-3.7-3.3-3.7-10.5C62.5,35.8,62.8,32.6,66.2,32.6z"/>
	<path class="st0" d="M18.7,51.8C18.6,53.1,18,54,17,54.4l-0.3,0.2c-1,0.6-1.6,1.5-1.6,2.5c0,0.7,0.2,1.4,0.8,2
		c0.5,0.6,1.2,0.9,2.2,0.9h21.4c2,0,3-0.9,3-2.8c0-1.1-0.5-2-1.6-2.5l-0.2-0.1l-0.2-0.1c-0.9-0.5-1.4-1.3-1.6-2.6V41.3l12.9-20.9
		c0.6-1.2,2-2.4,2-2.4l0.3-0.3l0.4-0.2c1-0.5,1.5-1.3,1.5-2.5c0-0.5-0.1-0.8-0.3-1.2c-0.5-1.1-1.4-1.7-2.7-1.7H42.1
		c-2,0-2.9,0.9-2.9,2.8c0,1.2,0.5,2.1,1.6,2.5l0.3,0.2c1,0.5,1.5,0.8,1.7,1.6c0.1,0.4,0.2,1-0.3,2s-8.1,12.7-8.1,12.7l-8-14.4
		c-0.3-1.5,1.8-2,1.8-2c1.1-0.5,1.6-1.4,1.6-2.5c0-1.9-1-2.8-2.9-2.8H4.5c-0.8,0-1.4,0.3-2,0.8s-0.8,1.2-0.8,2
		c0,1.2,0.5,2.1,1.6,2.5c1,0.4,1.9,2,1.9,2l13.6,21.8L18.7,51.8z"/>
	<path class="st0" d="M108.6,82.4c16.5,0.1,29.5-10.2,22.8-23.5c0,0-4-6.8-12.8-6.9c4.8-2,6.9-5.6,6.9-10.5c0-0.6,0-1.1-0.1-1.7
		c0-0.5-0.1-1-0.2-1.5s-0.3-1.1-0.6-1.8c-0.3-0.8-0.7-1.6-1.3-2.6h0.8c1.8,0,3.3-1,3.3-3.3c0-1.8-1.5-3-4.6-3.1h-21
		c-3.5,0.3-5.1,0.8-7.6,2.3c-6.4,3.9-5.7,11.9-5.7,11.9c0,4.3,1.6,7.7,4.7,10.1c2.8,2.2,6.4,3.3,10.9,3.3c2.5,0,3.7-0.3,5-0.3
		c1.2,0,3.8-1,9.1,2c2.4,1.4,5.3,5.5,1.8,11c-1.7,2.6-5.4,4.8-11.4,4.8c-9.6,0-15.3-6.5-13.2-9.1c2.5-3.1,9.9-0.3,12.3,1.3l1.1-1.8
		c0,0-3.7-3.7-12.6-4.2c-5.7-0.3-9.6,2.4-10.3,6.9C85.3,70.1,89.7,82.3,108.6,82.4z M110.8,46.8c-0.5,2.3-1.6,3.4-3.4,3.4
		c-1.7,0-2.9-1.1-3.4-3.3c-0.3-1-0.4-2.9-0.4-5.5v-1.5c0-5.2,1.2-7.8,3.6-7.8c1.8,0,3,1.1,3.6,3.4c0.3,1.1,0.4,3,0.4,5.7
		C111.1,43.9,111,45.8,110.8,46.8z"/>
	<path class="st0" d="M131.5,34.6c0.7,0.4,2.2,0.8,2.2,2.6l-0.4,11.6c-0.1,2.5,0.9,4.5,2.8,6.1c2,1.6,4.7,2.4,8.2,2.4
		c8.6,0,10.8-3.9,10.8-3.9c0.3,1.9,1.1,2.6,1.1,2.6c0.5,0.6,1.1,0.9,1.7,0.9h11.4c1.7,0,2.5-0.8,2.5-2.4c0-0.8-0.3-1.5-1-1.9
		l-0.6-0.4c-1-0.5-1.5-1.4-1.5-2.8V31.8c0-1.4,0.1-2.5-0.3-3.5c0,0-0.7-1.7-2.9-1.2l-12.7,3.2c-1.5,0.4-2,1.4-2,2.4
		c0,0.8,0.3,1.5,0.9,1.9c2.4,1.5,2.1,3.2,2.1,3.2v7.5l-0.1,2.4c0,2.7-1.6,3.1-2.7,3.1c-1.2,0-2.6-0.5-2.6-2.8l0.2-16.2
		c0-1.5,0.1-3-0.3-3.7c-0.4-0.7-1.3-1.5-3.1-1l-12.6,3.2c-1.4,0.5-2.1,1.3-2.1,2.4C130.5,33.4,130.8,34.2,131.5,34.6z"/>
	<path class="st0" d="M174.5,34.6c0.2,0.2,0.9,0.6,0.9,0.6c0.9,0.5,1.1,1.1,1.2,2l0.1,12.3c0,2.3-1.8,2.9-1.8,2.9
		c-0.9,0.6-1.3,1.3-1.3,2.1c0,0.5,0.2,1.1,0.7,1.6c0.4,0.5,1.1,0.8,1.8,0.8h16.1c1.7,0,2.5-0.8,2.5-2.4c0-0.8-0.3-1.4-0.9-1.9
		l-0.4-0.3l-0.3-0.1c-1-0.5-1.4-1.4-1.4-2.8v-7.8c0-1.7,0.2-2.8,0.6-3.3c0.3-0.3,0.9-0.9,1.7-0.6c0,0,2.7,1.3,5.5,0.2
		c3.7-1.5,3.3-5.5,3.3-5.5c0-3.4-2.1-5.4-6.2-5.4c0,0-4.2,0-6.9,4.6V29c0,0,0.2-2.8-2.9-2l-11.1,3.3c-1.4,0.4-2.1,1.2-2.1,2.4
		C173.6,33.4,173.9,34.1,174.5,34.6z"/>
	<path class="st0" d="M229.9,54.1c0-1.9-0.6-3-1.9-3.1c-1,0-2.8,0.1-4-0.7c-0.3-0.2-0.8-0.6-0.8-1.8V34.1h3.8c3.3,0,3-3.3,3-3.3
		c0-2-1.1-3-3.3-3h-3.5v-6.7c0,0,0.1-2.3-2.1-2.3c-2.2,0-4,0-4,0c-1.7,0.2-2.9,1.1-3.4,2.9c-0.8,2.6-1.6,4.1-2.2,4.7
		c-0.9,0.8-1.9,1.6-4.6,1.6c-1.8,0-2.7,1.2-2.7,3.2c0,2.9,2.2,2.9,2.2,2.9h2.1v17.6c0,1.8,0.9,3.3,2.6,4.4c1,0.5,1.8,0.7,2.3,0.7
		H226C228.6,56.8,229.9,55.9,229.9,54.1z"/>
	<g>
		<path class="st0" d="M318.6,27.4c-10.8,0-18.3,5.3-18.3,15.8S307.7,59,318.6,59c11.8,0,18.3-5.3,18.3-15.8S330.2,27.4,318.6,27.4z
			 M318.4,53.7c-3.4,0-3.7-3.3-3.7-10.5c0-7.4,0.3-10.5,3.7-10.5c3.4,0,3.7,2.8,3.7,10.5C322.1,50.5,321.8,53.7,318.4,53.7z"/>
		<path class="st0" d="M305,16.8c0.9-0.4,1.6-1.4,1.6-2.5l0,0c0-1.5-1.3-2.8-2.8-2.8H294c-1.5,0-2.8,1.3-2.8,2.8s1.3,2.8,2.8,2.8
			h0.4c0.9,0,1.6,0.9,1.3,1.8L290,34.4l-4.8-15.7c0-1,0.5-1.7,1.4-2.1l0.3-0.2c1-0.5,1.5-1.3,1.5-2.3c0-0.7-0.2-1.3-0.7-1.8
			s-1.2-0.8-2-0.8h-16.9c-1.8,0-2.7,0.9-2.7,2.6c0,1.1,0.5,1.9,1.4,2.3l0.2,0.1l0.2,0.1c0.7,0.4,1.2,0.9,1.4,1.7L271,23l-4.8,11.4
			l-4.8-15.7c0-1,0.5-1.7,1.4-2.1l0.3-0.2c1-0.5,1.5-1.3,1.5-2.3c0-0.7-0.2-1.3-0.7-1.8s-1.2-0.8-2-0.8H245c-1.8,0-2.7,0.9-2.7,2.6
			c0,1.1,0.5,1.9,1.4,2.3l0.2,0.1l0.2,0.1c0.7,0.4,1.2,0.9,1.4,1.7l11.6,36.1c0,0,1.1,4.4,5.3,4.4c4,0,5.1-4.4,5.1-4.4l7.5-18.8
			l6,18.8c0,0,1.1,4.4,5.3,4.4c4,0,5.1-4.4,5.1-4.4l12.5-36.2C304.1,17.6,304.4,17,305,16.8z"/>
		<path class="st0" d="M363.5,27.4c0,0-4.2,0-6.9,4.6v-2.6c0,0,0.2-2.8-2.9-2l-11.1,3.3c-1.4,0.4-2.1,1.2-2.1,2.4
			c0,0.8,0.3,1.4,0.9,1.9c0.2,0.2,0.9,0.6,0.9,0.6c0.9,0.5,1.1,1.1,1.2,2l0.1,12.3c0,2.3-1.8,2.9-1.8,2.9c-0.9,0.6-1.3,1.3-1.3,2.1
			c0,0.5,0.2,1.1,0.7,1.6c0.4,0.5,1.1,0.8,1.8,0.8h16c1.7,0,2.5-0.8,2.5-2.4c0-0.8-0.3-1.4-0.9-1.9l-0.4-0.3l-0.3-0.1
			c-1-0.5-1.4-1.4-1.4-2.8V42c0-1.7,0.2-2.8,0.6-3.3c0.3-0.3,0.9-0.9,1.7-0.6c0,0,2.7,1.3,5.5,0.2c3.7-1.5,3.3-5.5,3.3-5.5
			C369.7,29.5,367.6,27.4,363.5,27.4z"/>
		<path class="st0" d="M389.9,53.1c-2.2-1.4-2.1-3.2-2.1-3.2V15.7c0-4.2-3.4-3.4-3.4-3.4l-12.6,3.2c-1.4,0.5-2.1,1.3-2.1,2.4
			c0,0.8,0.2,1.5,0.9,1.9c2.1,1.2,2.1,3.6,2.1,3.6l0.1,26.5c0,0,0.2,1.5-1.8,2.9c-0.9,0.6-1.4,1.7-1.3,2.5c0,0.8,0.8,2,2.5,2h16.1
			c2.5,0,2.5-2.3,2.5-2.3C390.8,54.2,390.5,53.6,389.9,53.1z"/>
		<path class="st0" d="M433.7,55c0,0-3.1-0.3-3.1-5.1V17c0-1.4,0-3-0.3-3.5c-0.5-1-1.2-1.3-2.2-1.3c-0.3,0-0.7,0.1-0.8,0.1
			l-12.6,3.2c-1.4,0.3-2.1,1.1-2.1,2.4c0,0.8,0.3,1.5,1,1.9c2.2,1.3,2.1,2.7,2.1,2.7v7.3c-1.6-1.3-3.9-1.9-6.8-1.9
			c-4.1-0.1-7.8,1.1-11.1,4.4c-3.3,3.3-4.9,7.3-4.8,11.3c0.1,3.6,1.2,6.7,3.1,9.3c2.8,3.5,6.7,5.3,11.6,5.3c0,0,5.7-0.1,9.4-3.6
			l0.6,1.3c0,0,0.6,1.5,2.2,1.5l11.3,0.1C432.9,57.4,433.8,56.6,433.7,55 M412,52.1c-3.4,0-3.7-3-3.7-9.8s0.3-9.8,3.7-9.8
			s3.7,2.6,3.7,9.8C415.7,49.1,415.4,52.1,412,52.1z"/>
		<path class="st0" d="M461.2,31.5c-4.8,0-8.7-3.9-8.7-8.7c0-0.6-0.5-1.1-1.1-1.1s-1.1,0.5-1.1,1.1c0,4.8-3.9,8.7-8.7,8.7l0,0
			c-0.6,0-1.1,0.5-1.1,1.1s0.5,1.1,1.1,1.1l0,0c4.8,0,8.7,3.9,8.7,8.7c0,0.6,0.5,1.1,1.1,1.1s1.1-0.5,1.1-1.1c0-4.8,3.9-8.7,8.7-8.7
			c0.6,0,1.1-0.5,1.1-1.1S461.8,31.5,461.2,31.5z"/>
		<g>
			<path class="st0" d="M481.8,18.6c-6.3-12.5-19.6-18.8-32.4-17c-0.4,0.1-0.7,0.4-0.7,0.8c0,0.5,0.4,1,1,1
				c10,0.1,19.7,5.6,24.6,15.2c6.5,12.7,2.4,28.5-9.6,36.3c-10.4,6.8-23.4,5.8-32.5-1.3c-1.6-1.3-1.5-3.8-1.5-4.2l-0.2,3.7h0.1
				l-0.1,0.3c10,11.3,27.2,14,40.5,5.4C484.2,50.2,488.9,32.7,481.8,18.6z"/>
			<path class="st0" d="M430.7,49.4L430.7,49.4L430.7,49.4z"/>
		</g>
	</g>
</g>
</svg>