<?xml version="1.0" encoding="utf-8"?>
<!-- Generator: Adobe Illustrator 26.5.1, SVG Export Plug-In . SVG Version: 6.00 Build 0)  -->
<svg version="1.1" id="레이어_1" xmlns="http://www.w3.org/2000/svg" xmlns:xlink="http://www.w3.org/1999/xlink" x="0px"
	 y="0px" viewBox="0 0 401.9 176.4" style="enable-background:new 0 0 401.9 176.4;" xml:space="preserve">
<style type="text/css">
	.st0{fill:#0068B7;}
</style>
<g>
	<path class="st0" d="M67.8,44.3c0,16.8,11.9,25.3,29.2,25.3c18.8,0,29.2-8.5,29.2-25.3C126.1,27.5,115.4,19,97,19
		C79.6,19,67.8,27.5,67.8,44.3z M96.7,27.5c5.4,0,5.8,4.5,5.8,16.8c0,11.6-0.5,16.8-5.8,16.8s-5.8-5.2-5.8-16.8
		C90.9,32.5,91.3,27.5,96.7,27.5z"/>
	<path class="st0" d="M135,116.9c-17.3,0-29.2,8.5-29.2,25.3s11.9,25.3,29.2,25.3c18.8,0,29.2-8.5,29.2-25.3S153.5,116.9,135,116.9z
		 M134.8,159c-5.4,0-5.8-5.2-5.8-16.8c0-11.8,0.5-16.8,5.8-16.8s5.8,4.5,5.8,16.8C140.6,153.8,140.1,159,134.8,159z"/>
	<path class="st0" d="M25.9,59.1c-0.2,1.9-1,3.2-2.5,3.8l-0.5,0.3c-1.5,0.9-2.3,2.1-2.3,3.6c0,1.1,0.4,2,1.1,2.9s1.8,1.3,3.2,1.3
		h31.3c2.9,0,4.4-1.4,4.4-4.1c0-1.7-0.8-2.9-2.4-3.7L57.9,63l-0.3-0.1c-1.3-0.7-2.1-1.9-2.4-3.8V43.8l18.9-30.6
		c0.8-1.7,2.9-3.6,2.9-3.6l0.5-0.4l0.6-0.3c1.5-0.7,2.2-1.9,2.2-3.6c0-0.7-0.1-1.2-0.4-1.7c-0.7-1.7-2-2.5-4-2.5H60.2
		c-2.9,0-4.3,1.4-4.3,4.1c0,1.8,0.8,3,2.4,3.7l0.5,0.3c1.5,0.7,2.3,1.2,2.5,2.3c0.2,0.6,0.3,1.5-0.4,2.9C60.1,15.8,49,33,49,33
		L37.4,11.9c-0.5-2.3,2.7-3,2.7-3c1.6-0.8,2.4-2,2.4-3.7c0-2.7-1.4-4.1-4.3-4.1H5.1C3.9,1.1,3,1.5,2.2,2.3S1,4,1,5.2
		c0,1.7,0.7,3,2.3,3.7c1.5,0.6,2.8,3,2.8,3l20,31.9L25.9,59.1z"/>
	<path class="st0" d="M113.3,100c1.5-0.7,2.5-2.2,2.5-4l0,0c0-2.5-2-4.5-4.5-4.5H95.7c-2.5,0-4.5,2-4.5,4.5s2,4.5,4.5,4.5h0.6
		c1.5,0,2.5,1.5,2,2.9l-9,24.8L81.7,103c0-1.5,0.8-2.7,2.3-3.4l0.5-0.3c1.6-0.9,2.4-2.1,2.4-3.6c0-1.1-0.4-2-1.1-2.9
		c-0.8-0.9-1.8-1.3-3.2-1.3h-27c-2.9,0-4.3,1.4-4.3,4.1c0,1.7,0.8,3,2.3,3.7l0.3,0.2l0.3,0.1c1.1,0.6,1.9,1.5,2.3,2.7l2.4,7.6
		l-7.6,18.2L43.7,103c0-1.5,0.8-2.7,2.3-3.4l0.5-0.3c1.6-0.9,2.4-2.1,2.4-3.6c0-1.1-0.4-2-1.1-2.9c-0.8-0.9-1.8-1.3-3.2-1.3h-27
		c-2.9,0-4.3,1.4-4.3,4.1c0,1.7,0.8,3,2.3,3.7l0.3,0.2l0.3,0.1c1.1,0.6,1.9,1.5,2.3,2.7L37,159.9c0,0,1.8,7.1,8.4,7.1
		c6.4,0,8.1-7.1,8.1-7.1l11.9-30.1l9.6,30.1c0,0,1.8,7.1,8.4,7.1c6.4,0,8.1-7.1,8.1-7.1l20-57.7C111.8,101.2,112.4,100.4,113.3,100z
		"/>
	<path class="st0" d="M164.5,106.9c26.4,0.2,47.1-16.3,36.4-37.6c0,0-6.3-10.8-20.5-11.1c7.7-3.2,11-9,11-16.8c0-0.9,0-1.8-0.1-2.6
		s-0.2-1.6-0.3-2.3s-0.4-1.7-0.9-2.9s-1.1-2.6-2-4.1h1.2c2.9,0,5.3-1.6,5.3-5.3c0-2.9-2.4-4.8-7.4-4.9h-33.5
		c-5.6,0.5-8.2,1.3-12.1,3.7c-10.2,6.3-9.1,19-9.1,19c0,6.9,2.5,12.2,7.5,16.1c4.5,3.5,10.3,5.2,17.5,5.2c4,0,5.8-0.5,7.9-0.5
		c2,0,6.1-1.7,14.5,3.3c3.8,2.2,8.5,8.7,2.8,17.6c-2.6,4.2-8.6,7.7-18.2,7.7c-15.4,0-24.4-10.3-21-14.5c4.1-5,15.9-0.5,19.7,2
		l1.7-2.9c0,0-5.9-6-20.2-6.7c-9.1-0.5-15.3,3.9-16.4,11.1C127.2,87.3,134.3,106.7,164.5,106.9z M167.9,50.2
		c-0.8,3.7-2.6,5.5-5.5,5.5c-2.7,0-4.6-1.8-5.5-5.3c-0.4-1.7-0.6-4.6-0.6-8.8v-2.4c0-8.3,1.9-12.4,5.8-12.4c2.9,0,4.8,1.8,5.7,5.4
		c0.4,1.8,0.6,4.8,0.6,9.1C168.4,45.5,168.3,48.5,167.9,50.2z"/>
	<path class="st0" d="M201,30.6c1.2,0.7,3.5,1.2,3.5,4.2l-0.7,18.6c-0.1,4,1.4,7.3,4.5,9.8c3.2,2.5,7.5,3.8,13.1,3.8
		c13.7,0,17.2-6.3,17.2-6.3c0.5,3.1,1.7,4.1,1.7,4.1c0.8,0.9,1.7,1.4,2.7,1.4h18.2c2.7,0,4-1.3,4-3.8c0-1.3-0.5-2.3-1.6-3l-1-0.6
		c-1.6-0.8-2.4-2.3-2.4-4.5V26.1c0-2.3,0.1-4-0.5-5.6c0,0-1.1-2.7-4.7-1.9l-20.3,5.1c-2.4,0.7-3.2,2.2-3.2,3.9c0,1.3,0.4,2.3,1.5,3
		c3.8,2.4,3.4,5.1,3.4,5.1v12l-0.2,3.8c0,4.3-2.6,5-4.4,5c-2,0-4.1-0.7-4.1-4.5l0.4-25.9c0.1-2.5,0.2-4.8-0.4-5.9
		c-0.6-1.1-2-2.4-4.9-1.6l-20.1,5.1c-2.3,0.8-3.4,2.1-3.4,3.9C199.5,28.8,199.9,30,201,30.6z"/>
	<path class="st0" d="M269.8,30.6c0.4,0.3,1.5,0.9,1.5,0.9c1.4,0.9,1.8,1.8,1.9,3.2l0.1,19.6c0,3.6-2.8,4.7-2.8,4.7
		c-1.4,0.9-2.1,2.1-2.1,3.4c0,0.9,0.3,1.7,1,2.5s1.7,1.2,2.9,1.2H298c2.7,0,4-1.3,4-3.8c0-1.3-0.5-2.3-1.5-3l-0.6-0.4l-0.5-0.2
		c-1.5-0.8-2.3-2.3-2.3-4.5V41.8c0-2.7,0.3-4.4,1-5.3c0.5-0.5,1.4-1.4,2.7-1c0,0,4.4,2.1,8.8,0.3c6-2.4,5.3-8.8,5.3-8.8
		c0-5.4-3.3-8.7-9.9-8.7c0,0-6.7-0.1-11.1,7.4v-4.1c0,0,0.2-4.5-4.6-3.1l-17.8,5.2c-2.3,0.7-3.4,2-3.4,3.9
		C268.3,28.8,268.7,29.8,269.8,30.6z"/>
	<path class="st0" d="M206.6,117c0,0-6.7-0.1-11.1,7.4v-4.1c0,0,0.2-4.5-4.6-3.1l-17.8,5.2c-2.3,0.7-3.4,2-3.4,3.9
		c0,1.2,0.4,2.3,1.5,3c0.4,0.3,1.5,0.9,1.5,0.9c1.4,0.9,1.8,1.8,1.9,3.2l0.1,19.6c0,3.6-2.8,4.7-2.8,4.7c-1.4,0.9-2.1,2.1-2.1,3.4
		c0,0.9,0.3,1.7,1,2.5s1.7,1.2,2.9,1.2h25.7c2.7,0,4-1.3,4-3.8c0-1.3-0.5-2.3-1.5-3l-0.6-0.4l-0.5-0.2c-1.5-0.8-2.3-2.3-2.3-4.5
		v-12.5c0-2.7,0.3-4.4,1-5.3c0.5-0.5,1.4-1.4,2.7-1c0,0,4.4,2.1,8.8,0.3c6-2.4,5.3-8.8,5.3-8.8C216.5,120.3,213.2,117,206.6,117z"/>
	<path class="st0" d="M358.2,61.8c0-3-1-4.8-3.1-4.9c-1.6,0-4.5,0.1-6.4-1.1c-0.5-0.3-1.3-1-1.3-2.9V29.8h6.1c5.3,0,4.8-5.2,4.8-5.2
		c0-3.2-1.7-4.8-5.2-4.8h-5.6V9.2c0,0,0.2-3.7-3.3-3.7c-3.4,0-6.3,0-6.3,0c-2.7,0.3-4.6,1.8-5.5,4.7c-1.3,4.1-2.5,6.5-3.5,7.5
		c-1.4,1.3-3,2.5-7.3,2.5c-2.9,0-4.3,2-4.3,5.1c0,4.6,3.5,4.6,3.5,4.6h3.4v28.2c0,2.9,1.4,5.3,4.2,7.1c1.6,0.7,2.8,1.1,3.6,1.1h20.1
		C356.1,66.1,358.2,64.7,358.2,61.8z"/>
	<path class="st0" d="M248.8,158c-3.5-2.2-3.4-5.1-3.4-5.1V98.3c0-6.6-5.4-5.5-5.4-5.5l-20,5.1c-2.3,0.8-3.4,2.1-3.4,3.9
		c0,1.2,0.4,2.4,1.5,3c3.3,1.9,3.4,5.8,3.4,5.8l0.1,42.4c0,0,0.3,2.4-2.8,4.7c-1.4,0.9-2.2,2.7-2.1,4c0.1,1.3,1.3,3.2,4,3.2h25.7
		c4,0,4-3.7,4-3.7C250.3,159.8,249.8,158.8,248.8,158z"/>
	<path class="st0" d="M318.9,161c0,0-4.9-0.5-4.9-8.1v-52.6c0-2.2,0.1-4.7-0.4-5.7c-0.8-1.6-1.9-2.1-3.5-2.1c-0.5,0-1.1,0.2-1.3,0.2
		l-20.2,5.1c-2.2,0.5-3.3,1.8-3.3,3.9c0,1.3,0.5,2.3,1.6,3c3.6,2.2,3.4,4.3,3.4,4.3v11.6c-2.6-2-6.2-3-10.9-3.1
		c-6.5-0.2-12.5,1.7-17.7,7c-5.3,5.3-7.8,11.7-7.6,18c0.2,5.8,1.9,10.7,5,14.8c4.5,5.7,10.6,8.5,18.5,8.5c0,0,9-0.2,15.1-5.7l1,2.1
		c0,0,1,2.4,3.5,2.4l18,0.1C317.6,164.8,318.9,163.5,318.9,161 M284.2,156.5c-5.4,0-5.8-4.9-5.8-15.6c0-10.9,0.5-15.6,5.8-15.6
		c5.4,0,5.8,4.2,5.8,15.6C290,151.6,289.6,156.5,284.2,156.5z"/>
	<path class="st0" d="M362.7,123.5c-7.6,0-13.8-6.2-13.8-13.8c0-1-0.8-1.8-1.8-1.8s-1.8,0.8-1.8,1.8c0,7.6-6.2,13.8-13.8,13.8l0,0
		c-1,0-1.8,0.8-1.8,1.8s0.8,1.8,1.8,1.8l0,0c7.6,0,13.8,6.2,13.8,13.8c0,1,0.8,1.8,1.8,1.8s1.8-0.8,1.8-1.8
		c0-7.6,6.2-13.8,13.8-13.8c1,0,1.8-0.8,1.8-1.8S363.6,123.5,362.7,123.5z"/>
	<g>
		<path class="st0" d="M395.7,103c-10-20-31.3-30.1-51.8-27.1c-0.6,0.1-1.1,0.7-1.1,1.3c0,0.9,0.7,1.5,1.6,1.5
			c16,0.2,31.4,8.9,39.3,24.3c10.4,20.2,3.8,45.4-15.3,57.9c-16.6,10.8-37.4,9.2-52-2.1c-2.5-2.1-2.4-6.1-2.4-6.7l-0.3,5.9l0.2,0.1
			l-0.2,0.5c16,18,43.4,22.4,64.7,8.6C399.5,153.4,407,125.5,395.7,103z"/>
		<path class="st0" d="M314,152.1L314,152.1L314,152.1z"/>
	</g>
	<path class="st0" d="M311,164.8c0,0,7.5,0.3,15,3.8l-7.5-6.6L311,164.8z"/>
</g>
</svg>